<svg xmlns="http://www.w3.org/2000/svg" width="805" height="600"><rect width="805" height="600" x="0" y="0" fill="#FFFFFF" id="background"/><g transform="translate(402.5,300)" id="chord_diagram"><g><g><path fill="#17becf" d="M1.5308084989341916e-14,-250A250,250,0,0,1,123.56507334606164,-217.32849019165067L118.62247041221917,-208.63535058398466A240,240,0,0,0,1.469576158976824e-14,-240Z"/></g><g><path fill="#cccccc" d="M132.51056131695128,-211.99280916924164A250,250,0,0,1,246.55626924539774,-41.35221996206404L236.69401847558186,-39.69813116358148A240,240,0,0,0,127.21013886427322,-203.51309680247195Z"/></g><g><path fill="#1f77b4" d="M248.06478632099774,-31.046123550577683A250,250,0,0,1,243.53106249528147,56.50328839916581L233.78981999547022,54.243156863199175A240,240,0,0,0,238.14219486815782,-29.804278608554576Z"/></g><g><path fill="#8c564b" d="M240.96607206573537,66.59843927008227A250,250,0,0,1,196.08931168221136,155.077341491259L188.2457392149229,148.87424783160864A240,240,0,0,0,231.32742918310595,63.93450169927898Z"/></g><g><path fill="#cccccc" d="M189.45943349601777,163.11076929304213A250,250,0,0,1,150.99775244348555,199.2477823139215L144.95784234574612,191.27787102136466A240,240,0,0,0,181.88105615617707,156.58633852132044Z"/></g><g><path fill="#cccccc" d="M142.56710802600637,205.3646018891791A250,250,0,0,1,96.2803243211199,230.7164908467099L92.42911134827511,221.48783121284148A240,240,0,0,0,136.8644237049661,197.15001781361195Z"/></g><g><path fill="#cccccc" d="M86.58635397496904,234.52676458204374A250,250,0,0,1,47.012849134434255,245.53979721475483L45.13233516905689,235.71820532616465A240,240,0,0,0,83.12289981597029,225.145693998762Z"/></g><g><path fill="#cccccc" d="M36.74418044062696,247.2849878252755A250,250,0,0,1,7.50257403847654,249.88739740690642L7.202471076937479,239.89190151063016A240,240,0,0,0,35.27441322300188,237.39358831226448Z"/></g><g><path fill="#2ca02c" d="M-2.912900099677591,249.98302945001947A250,250,0,0,1,-43.80929804898839,246.13156117096176L-42.05692612702885,236.2862987241233A240,240,0,0,0,-2.7963840956904877,239.98370827201867Z"/></g><g><path fill="#cccccc" d="M-54.02378917639113,244.0930769256368A250,250,0,0,1,-71.08336704166597,239.68136124867905L-68.24003235999933,230.0941067987319A240,240,0,0,0,-51.862837609335486,234.32935384861133Z"/></g><g><path fill="#cccccc" d="M-81.00550561589543,236.5123845804129A250,250,0,0,1,-92.02769738016042,232.44548374813743L-88.34658948495401,223.14766439821193A240,240,0,0,0,-77.76528539125961,227.05188919719637Z"/></g><g><path fill="#cccccc" d="M-101.63025007693824,228.41035937386684A250,250,0,0,1,-112.24902441419619,223.38342937214745L-107.75906343762833,214.44809219726156A240,240,0,0,0,-97.56504007386071,219.27394499891216Z"/></g><g><path fill="#bcbd22" d="M-121.45655006169417,218.51385870720233A250,250,0,0,1,-131.58848199062206,212.56639293972069L-126.32494271099718,204.06373722213186A240,240,0,0,0,-116.5982880592264,209.77330435891423Z"/></g><g><path fill="#cccccc" d="M-140.32864289422716,206.9006331151852A250,250,0,0,1,-159.1285872566947,192.81621487231956L-152.7634437664269,185.10356627742678A240,240,0,0,0,-134.7154971784581,198.62460779057778Z"/></g><g><path fill="#e377c2" d="M-167.02215928519266,186.02042443697343A250,250,0,0,1,-175.57719526517877,177.96811091544825L-168.5541074545716,170.84938647883033A240,240,0,0,0,-160.34127291378493,178.57960745949447Z"/></g><g><path fill="#cccccc" d="M-182.83799905357864,170.50004722017988A250,250,0,0,1,-190.646404505921,161.72182428158777L-183.02054832568416,155.25295131032425A240,240,0,0,0,-175.5244790914355,163.6800453313727Z"/></g><g><path fill="#ff7f0e" d="M-197.21739651970572,153.64015917067115A250,250,0,0,1,-210.76724924635593,134.45135419594877L-202.3365592765017,129.07330002811082A240,240,0,0,0,-189.32870065891748,147.4945528038443Z"/></g><g><path fill="#cccccc" d="M-216.18483694211503,125.55523197506008A250,250,0,0,1,-227.0149441933109,104.71014808941848L-217.93434642557847,100.52174216584174A240,240,0,0,0,-207.53744346443042,120.53302269605767Z"/></g><g><path fill="#cccccc" d="M-231.17957164506421,95.16304773390046A250,250,0,0,1,-239.0909147031761,73.04474318113905L-229.52727811504906,70.1229534538935A240,240,0,0,0,-221.93238877926166,91.35652582454443Z"/></g><g><path fill="#cccccc" d="M-241.92605092229834,63.02210632104824A250,250,0,0,1,-244.61976501605966,51.586534710985816L-234.8349744154173,49.52307332254638A240,240,0,0,0,-232.24900888540643,60.50122206820631Z"/></g><g><path fill="#7f7f7f" d="M-246.55626924539766,41.352219962064616A250,250,0,0,1,-248.22679283987324,29.72304352570015L-238.2977211262783,28.53412178467214A240,240,0,0,0,-236.69401847558177,39.69813116358203Z"/></g><g><path fill="#cccccc" d="M-249.24945119277362,19.357455413900947A250,250,0,0,1,-249.8836600426181,7.62603722160326L-239.88831364091337,7.32099573273913A240,240,0,0,0,-239.27947314506267,18.58315719734491Z"/></g><g><path fill="#d62728" d="M-249.98443814041525,-2.789388395491522A250,250,0,0,1,-249.57734966856532,-14.530882024663283L-239.59425568182272,-13.949646743676752A240,240,0,0,0,-239.98506061479864,-2.677812859671861Z"/></g><g><path fill="#cccccc" d="M-248.75545576160346,-24.914317747771932A250,250,0,0,1,-245.31890722192927,-48.15219371366656L-235.50615093305208,-46.226105965119906A240,240,0,0,0,-238.8052375311393,-23.917745037861057Z"/></g><g><path fill="#cccccc" d="M-243.1002266721246,-58.32906472730079A250,250,0,0,1,-240.09141821150675,-69.68580128826358L-230.48776148304648,-66.89836923673303A240,240,0,0,0,-233.3762176052396,-55.995902138208756Z"/></g><g><path fill="#cccccc" d="M-236.98030070085503,-79.62623361513678A250,250,0,0,1,-232.97768306344574,-90.6719316789304L-223.6585757409079,-87.0450544117732A240,240,0,0,0,-227.50108867282083,-76.44118427053131Z"/></g><g><path fill="#cccccc" d="M-228.99857067085134,-100.29782964106005A250,250,0,0,1,-224.03358988714706,-110.94571015716471L-215.07224629166117,-106.50788175087813A240,240,0,0,0,-219.83862784401728,-96.28591645541763Z"/></g><g><path fill="#cccccc" d="M-219.21774397729212,-120.18144917376559A250,250,0,0,1,-213.32940675522298,-130.34785849205434L-204.79623048501404,-125.13394415237218A240,240,0,0,0,-210.44903421820044,-115.37419120681496Z"/></g><g><path fill="#cccccc" d="M-207.71466237783397,-139.1208792139499A250,250,0,0,1,-200.94922965177645,-148.72594629841026L-192.9112604657054,-142.77690844647387A240,240,0,0,0,-199.40607588272061,-133.55604404539193Z"/></g><g><path fill="#cccccc" d="M-194.57969829561284,-156.96732466086144A250,250,0,0,1,-178.98798569151555,-174.5373913466505L-171.82846626385492,-167.55589569278447A240,240,0,0,0,-186.79651036378831,-150.68863167442697Z"/></g><g><path fill="#cccccc" d="M-171.56234944450108,-181.84158009950008A250,250,0,0,1,-153.7375813788026,-197.14146208191735L-147.5880781236505,-189.25580359864065A240,240,0,0,0,-164.69985546672103,-174.56791689552009Z"/></g><g><path fill="#cccccc" d="M-145.39229693237965,-203.3742363052084A250,250,0,0,1,-135.67698118430104,-209.98037236064425L-130.249901936929,-201.58115746621849A240,240,0,0,0,-139.57660505508446,-195.23926685300006Z"/></g><g><path fill="#cccccc" d="M-126.81257225589262,-215.449696026344A250,250,0,0,1,-116.55045292110071,-221.16959990895288L-111.88843480425668,-212.32281591259476A240,240,0,0,0,-121.74006936565692,-206.8317081852902Z"/></g><g><path fill="#cccccc" d="M-107.23656155467576,-225.83250400668686A250,250,0,0,1,-96.5082616021356,-230.62123805611174L-92.64793113805018,-221.39638853386725A240,240,0,0,0,-102.94709909248873,-216.7992038464194Z"/></g><g><path fill="#9467bd" d="M-86.81806114036156,-234.441089103059A250,250,0,0,1,-75.70786602475393,-238.2610312702812L-72.67955138376377,-228.73059001946996A240,240,0,0,0,-83.3453386947471,-225.06344553893663Z"/></g><g><path fill="#cccccc" d="M-65.71748623241007,-241.2078191172355A250,250,0,0,1,-54.312681716721954,-244.02895853717453L-52.140174448053074,-234.26780019568756A240,240,0,0,0,-63.08878678311367,-231.55950635254607Z"/></g><g><path fill="#cccccc" d="M-44.100610677377574,-246.07953213927073A250,250,0,0,1,-32.49079708397156,-247.8797049071347L-31.191165200612698,-237.96451671084932A240,240,0,0,0,-42.33658625028247,-236.2363508536999Z"/></g><g><path fill="#cccccc" d="M-22.13726456884773,-249.01795420693833A250,250,0,0,1,-10.413652846504894,-249.78301750597953L-9.997106732644697,-239.79169680574034A240,240,0,0,0,-21.25177398609382,-239.05723603866082Z"/></g></g><g fill-opacity="0.7"><path fill="#cccccc" d="M215.61267501165844,-103.1124355949221A239,239,0,0,1,219.8300736498168,-93.78559974279703Q0,0,122.76655253133339,-176.50318291626178L138.28721566417204,-190.00433148707629L130.21160504121096,-171.08459285567383Q0,0,215.61267501165844,-103.1124355949221Z"/><path fill="#cccccc" d="M220.2189376069632,-92.8688296429994A239,239,0,0,1,223.99349315709512,-83.35415420530873Q0,0,214.91314458089158,-6.110669877581764L234.99422668506497,-1.6472476098917055L214.9776896618191,3.0972484024674483Q0,0,220.2189376069632,-92.8688296429994Z"/><path fill="#cccccc" d="M224.33885674285813,-82.42012712503778A239,239,0,0,1,227.66223327153324,-72.73862482765249Q0,0,31.15687465322684,212.73046129278976L29.068142805491735,233.1952895618596L22.019445194350425,213.86945558759203Q0,0,224.33885674285813,-82.42012712503778Z"/><path fill="#cccccc" d="M227.9633337662172,-71.78940352302872A239,239,0,0,1,230.8281917482547,-61.96245552131519Q0,0,-2.9529745864288457,214.9797198367602L-8.258813109124072,234.85483177066757L-12.155430872800368,214.6561098601588Q0,0,227.9633337662172,-71.78940352302872Z"/><path fill="#cccccc" d="M231.0843641851778,-61.000136304209235A239,239,0,0,1,233.48437671265208,-51.04944496372479Q0,0,-70.08833469674808,203.25507457241164L-81.34806519419593,220.47106905251954L-78.72718347013237,200.06756504456217Q0,0,231.0843641851778,-61.000136304209235Z"/><path fill="#cccccc" d="M233.69505534669483,-50.07615307214836A239,239,0,0,1,235.6249221016227,-40.023694039958784Q0,0,-214.38874492938453,16.20080391842639L-234.6573499785704,12.685744007929719L-214.8858179672817,7.00608567834246Q0,0,233.69505534669483,-50.07615307214836Z"/><path fill="#8c564b" d="M200.27748081218033,130.42212496170555A239,239,0,0,1,194.50928420373938,138.87814211944567Q0,0,-87.8110603229028,196.25039537531518L-100.55102063497442,212.40172374362913L-96.13372314897305,192.31044504528768Q0,0,200.27748081218033,130.42212496170555Z"/><path fill="#8c564b" d="M193.92893850639572,139.68738958754506A239,239,0,0,1,187.76983729948475,147.86307247086754Q0,0,-169.8818646891395,131.77690256543784L-188.72666093591346,140.0258813647704L-175.36858191997015,124.38191377920954Q0,0,193.92893850639572,139.68738958754506Z"/><path fill="#cccccc" d="M101.8545480227371,216.2097385574571A239,239,0,0,1,92.50330031468995,220.37272841912693Q0,0,214.3887449293846,-16.200803918425862L234.65734997857044,-12.685744007929143L214.88581796728172,-7.006085678341933Q0,0,101.8545480227371,216.2097385574571Z"/><path fill="#2ca02c" d="M-31.274380668595928,236.9449579834856A239,239,0,0,1,-41.391386374394344,235.38851529759393Q0,0,-208.9612350701392,-50.59844106256667L-227.16279158388105,-60.183603413373554L-206.60302521176715,-59.49949557219716Q0,0,-31.274380668595928,236.9449579834856Z"/><path fill="#bcbd22" d="M-116.54741633267398,208.65689479664545A239,239,0,0,1,-125.37495468970309,203.4751108527893Q0,0,-129.2671492365715,171.79931352671335L-145.28078945143724,184.7119168228384L-136.50482592100911,166.10669011293612Q0,0,-116.54741633267398,208.65689479664545Z"/><path fill="#e377c2" d="M-160.0433281744477,177.50248760748687A239,239,0,0,1,-167.49698151409098,170.48683580754337Q0,0,-157.5458169823803,146.30213789058018L-175.5861481132387,156.18740215124845L-163.66580067589152,139.42204161867429Q0,0,-160.0433281744477,177.50248760748687Z"/><path fill="#ff7f0e" d="M-195.51902580412687,137.45293939601717A239,239,0,0,1,-201.22527092408328,128.95499347264254Q0,0,-121.05306769056533,177.68273636654575L-136.4423753600092,191.33342156068383L-128.55019872576347,172.33643377871877Q0,0,-195.51902580412687,137.45293939601717Z"/><path fill="#cccccc" d="M-206.9223195978107,119.59997346262865A239,239,0,0,1,-211.85366443292017,110.63012639576822Q0,0,-202.59026199693983,71.98739989756035L-223.07004968388733,73.92396725033115L-205.4868686880069,63.24671372330594Q0,0,-206.9223195978107,119.59997346262865Z"/><path fill="#cccccc" d="M-212.3127829542675,109.74644501857038A239,239,0,0,1,-216.8172681110387,100.55482210648061Q0,0,-167.05694446657157,-135.34022796453695L-179.38743739406627,-151.80628216641747L-161.10862879811984,-142.3692724108318Q0,0,-212.3127829542675,109.74644501857038Z"/><path fill="#cccccc" d="M-231.40632170697006,59.767167191111554A239,239,0,0,1,-233.75324474715123,49.803820839152685Q0,0,0.44791634265298,-214.99953342030764L5.521817831223328,-234.93511769813978L9.653518520179539,-214.7831687543988Q0,0,-231.40632170697006,59.767167191111554Z"/><path fill="#7f7f7f" d="M-235.78964165865,39.041578944574276A239,239,0,0,1,-237.24510061850066,28.909552617041566Q0,0,204.1712418403656,67.37287291902386L221.53579050890835,78.4021270348775L201.09916475616262,76.05344130526743Q0,0,-235.78964165865,39.041578944574276Z"/><path fill="#d62728" d="M-238.97904870364664,-3.164534831548962A239,239,0,0,1,-238.62436914942464,-13.394418540538155Q0,0,-213.88458957766179,-21.87195330086381L-233.21527981365722,-28.907321934720624L-212.75189682250442,-31.010166049642997Q0,0,-238.97904870364664,-3.164534831548962Z"/><path fill="#cccccc" d="M-236.3552608708536,-35.45688450316436A239,239,0,0,1,-234.62026940256817,-45.54480415444045Q0,0,114.33865560063764,-182.07600565543714L129.20787997202547,-196.2914255721188L122.03005905015607,-177.01317659489482Q0,0,-236.3552608708536,-35.45688450316436Z"/><path fill="#cccccc" d="M-226.39408701779257,-76.59449956348145A239,239,0,0,1,-222.90676979432496,-86.21816502257404Q0,0,122.23950218114153,176.86860689932143L129.44013753343785,196.1383460604394L114.5540969369994,181.94053664576387Q0,0,-226.39408701779257,-76.59449956348145Z"/><path fill="#cccccc" d="M-218.72239876945204,-96.34060554375192A239,239,0,0,1,-214.3966138532579,-105.61766882608717Q0,0,213.39087753254861,-26.255159224214164L233.80224323879776,-23.696224520080253L214.3193807643281,-17.093947139118033Q0,0,-218.72239876945204,-96.34060554375192Z"/><path fill="#cccccc" d="M-209.33234722863233,-115.32982443302038A239,239,0,0,1,-204.20207957074075,-124.1874015308512Q0,0,-178.38496392154747,-120.0158516476395L-192.12507400730695,-135.32537063568986L-173.08242959290305,-127.54400247058958Q0,0,-209.33234722863233,-115.32982443302038Z"/><path fill="#cccccc" d="M-178.43187154368448,-159.0065005508205A239,239,0,0,1,-171.45976303627214,-166.50089987608297Q0,0,-147.21750107023644,-156.69080183161657L-157.20769871944802,-174.67323625368388L-140.3731759656407,-162.85076441122183Q0,0,-178.43187154368448,-159.0065005508205Z"/><path fill="#cccccc" d="M-155.2870980478997,-181.6780591592226A239,239,0,0,1,-147.36544864076907,-188.16063495562736Q0,0,-108.67256170790465,-185.51354217911333L-114.4122104611683,-205.26774246673375L-100.62943390503766,-189.99662373829608Q0,0,-155.2870980478997,-181.6780591592226Z"/><path fill="#cccccc" d="M-138.58968083463103,-194.7149207589267A239,239,0,0,1,-130.12512313542746,-200.47057721518598Q0,0,207.11105013965232,57.70626404516605L224.9745922101151,67.90753168752647L204.45018901468265,66.52157703978862Q0,0,-138.58968083463103,-194.7149207589267Z"/><path fill="#cccccc" d="M-102.06814762260406,-216.10898463712772A239,239,0,0,1,-92.72101817077964,-220.28121297417525Q0,0,-198.98450049716828,81.42584701366295L-219.35069155075723,84.32244135581325L-202.28855677178956,72.8308986570018Q0,0,-102.06814762260406,-216.10898463712772Z"/><path fill="#9467bd" d="M-82.53095816822201,-224.2981073122A239,239,0,0,1,-72.85109906286363,-227.62626686156594Q0,0,-56.084751813461516,-207.55601801446863L-56.4297589048204,-228.1242694452825L-47.14602314604107,-209.7671387551276Q0,0,-82.53095816822201,-224.2981073122Z"/><path fill="#cccccc" d="M-41.66998426717528,-235.3393558484712A239,239,0,0,1,-31.55482799365753,-236.90777283637337Q0,0,-18.591849368803544,-214.1946384414132L-15.30315630864991,-234.50120129115123L-9.403249595430795,-214.7942710992219Q0,0,-41.66998426717528,-235.3393558484712Z"/><path fill="#cccccc" d="M23.486623266106665,237.8431805361591A239,239,0,0,1,7.670137255368113,238.87689087578946Q0,0,74.04390933815247,201.84771361083943L73.57142383397732,223.1865712695127L60.5021116283129,206.31164409338405Q0,0,23.486623266106665,237.8431805361591Z"/><path fill="#2ca02c" d="M-14.50643651728762,238.55934963771574A239,239,0,0,1,-30.28684138840871,237.07321071498856Q0,0,-46.897690979218396,209.82279804830011L-58.83691160551656,227.51531340269082L-60.70213419668025,206.25288095919586Q0,0,-14.50643651728762,238.55934963771574Z"/><path fill="#cccccc" d="M66.29966391027959,229.620022135231A239,239,0,0,1,45.43321931291238,234.6419028708743Q0,0,162.6425192979623,140.61440508145657L170.69185933496766,161.5217915848249L149.37227583858623,154.6380393396182Q0,0,66.29966391027959,229.620022135231Z"/><path fill="#cccccc" d="M165.32870121707458,172.5903257829803A239,239,0,0,1,144.75037294755842,190.17972954955727Q0,0,113.7950191694108,182.4162646592497L112.88888722787502,206.1094348652L92.43608812716347,194.11483614537883Q0,0,165.32870121707458,172.5903257829803Z"/><path fill="#1f77b4" d="M238.95877903015264,4.438684987547424A239,239,0,0,1,232.9277261379322,53.531994136333616Q0,0,200.78053068436876,76.89069188206892L209.58307361147675,106.30115359471091L180.65322486309387,116.57363486897218Q0,0,238.95877903015264,4.438684987547424Z"/><path fill="#17becf" d="M11.72585357510897,-238.71217890575903A239,239,0,0,1,117.69510816778511,-208.01168600194885Q0,0,130.92332514135666,-170.5405609640434L182.26228380307307,-148.34237392898916L193.57301856214377,-93.56541286575901Q0,0,11.72585357510897,-238.71217890575903Z"/></g><g><g id="information" transform="rotate(-75.18950746593092) translate(250,0)"><text x="8" dy="0.35em" style="font-family: Arial, sans-serif; font-size: 10px; fill: black; font-weight: bold;">information (22)</text></g><g id="visualization" transform="rotate(-33.75633936609763) translate(250,0)"><text x="8" dy="0.35em" style="font-family: Arial, sans-serif; font-size: 10px; fill: black; font-weight: bold;">visualization (36)</text></g><g id="abstract" transform="rotate(2.964399291077328) translate(250,0)"><text x="8" dy="0.35em" style="font-family: Arial, sans-serif; font-size: 10px; fill: black; font-weight: bold;">abstract (15)</text></g><g id="datum" transform="rotate(26.894258032465316) translate(250,0)"><text x="8" dy="0.35em" style="font-family: Arial, sans-serif; font-size: 10px; fill: black; font-weight: bold;">datum (17)</text></g><g id="visual" transform="rotate(46.78489153728904) translate(250,0)"><text x="8" dy="0.35em" style="font-family: Arial, sans-serif; font-size: 10px; fill: black; font-weight: bold;">visual (9)</text></g><g id="representation" transform="rotate(61.289891393360335) translate(250,0)"><text x="8" dy="0.35em" style="font-family: Arial, sans-serif; font-size: 10px; fill: black; font-weight: bold;">representation (9)</text></g><g id="interactive" transform="rotate(74.44848283724355) translate(250,0)"><text x="8" dy="0.35em" style="font-family: Arial, sans-serif; font-size: 10px; fill: black; font-weight: bold;">interactive (7)</text></g><g id="use" transform="rotate(84.91425745675059) translate(250,0)"><text x="8" dy="0.35em" style="font-family: Arial, sans-serif; font-size: 10px; fill: black; font-weight: bold;">use (5)</text></g><g id="computer" transform="rotate(95.38003207625758) translate(250,0)"><text x="8" dy="0.35em" transform="rotate(180) translate(-16)" text-anchor="end" style="font-family: Arial, sans-serif; font-size: 10px; fill: black; font-weight: bold;">computer (7)</text></g><g id="graphic" transform="rotate(104.49939828357651) translate(250,0)"><text x="8" dy="0.35em" transform="rotate(180) translate(-16)" text-anchor="end" style="font-family: Arial, sans-serif; font-size: 10px; fill: black; font-weight: bold;">graphic (3)</text></g><g id="infovis" transform="rotate(110.25274346042517) translate(250,0)"><text x="8" dy="0.35em" transform="rotate(180) translate(-16)" text-anchor="end" style="font-family: Arial, sans-serif; font-size: 10px; fill: black; font-weight: bold;">infovis (2)</text></g><g id="reinforce" transform="rotate(115.33288443117979) translate(250,0)"><text x="8" dy="0.35em" transform="rotate(180) translate(-16)" text-anchor="end" style="font-family: Arial, sans-serif; font-size: 10px; fill: black; font-weight: bold;">reinforce (2)</text></g><g id="human" transform="rotate(120.41302540193436) translate(250,0)"><text x="8" dy="0.35em" transform="rotate(180) translate(-16)" text-anchor="end" style="font-family: Arial, sans-serif; font-size: 10px; fill: black; font-weight: bold;">human (2)</text></g><g id="cognition" transform="rotate(126.83957478487707) translate(250,0)"><text x="8" dy="0.35em" transform="rotate(180) translate(-16)" text-anchor="end" style="font-family: Arial, sans-serif; font-size: 10px; fill: black; font-weight: bold;">cognition (4)</text></g><g id="enable" transform="rotate(133.26612416781975) translate(250,0)"><text x="8" dy="0.35em" transform="rotate(180) translate(-16)" text-anchor="end" style="font-family: Arial, sans-serif; font-size: 10px; fill: black; font-weight: bold;">enable (2)</text></g><g id="user" transform="rotate(138.34626513857438) translate(250,0)"><text x="8" dy="0.35em" transform="rotate(180) translate(-16)" text-anchor="end" style="font-family: Arial, sans-serif; font-size: 10px; fill: black; font-weight: bold;">user (2)</text></g><g id="amplify" transform="rotate(144.77281452151712) translate(250,0)"><text x="8" dy="0.35em" transform="rotate(180) translate(-16)" text-anchor="end" style="font-family: Arial, sans-serif; font-size: 10px; fill: black; font-weight: bold;">amplify (4)</text></g><g id="map" transform="rotate(152.54577231664794) translate(250,0)"><text x="8" dy="0.35em" transform="rotate(180) translate(-16)" text-anchor="end" style="font-family: Arial, sans-serif; font-size: 10px; fill: black; font-weight: bold;">map (4)</text></g><g id="data" transform="rotate(160.31873011177873) translate(250,0)"><text x="8" dy="0.35em" transform="rotate(180) translate(-16)" text-anchor="end" style="font-family: Arial, sans-serif; font-size: 10px; fill: black; font-weight: bold;">data (4)</text></g><g id="structure" transform="rotate(166.7452794947215) translate(250,0)"><text x="8" dy="0.35em" transform="rotate(180) translate(-16)" text-anchor="end" style="font-family: Arial, sans-serif; font-size: 10px; fill: black; font-weight: bold;">structure (2)</text></g><g id="geographic" transform="rotate(171.8254204654761) translate(250,0)"><text x="8" dy="0.35em" transform="rotate(180) translate(-16)" text-anchor="end" style="font-family: Arial, sans-serif; font-size: 10px; fill: black; font-weight: bold;">geographic (2)</text></g><g id="technique" transform="rotate(176.90556143623076) translate(250,0)"><text x="8" dy="0.35em" transform="rotate(180) translate(-16)" text-anchor="end" style="font-family: Arial, sans-serif; font-size: 10px; fill: black; font-weight: bold;">technique (2)</text></g><g id="contrast" transform="rotate(181.9857024069854) translate(250,0)"><text x="8" dy="0.35em" transform="rotate(180) translate(-16)" text-anchor="end" style="font-family: Arial, sans-serif; font-size: 10px; fill: black; font-weight: bold;">contrast (2)</text></g><g id="scientific" transform="rotate(188.41225178992812) translate(250,0)"><text x="8" dy="0.35em" transform="rotate(180) translate(-16)" text-anchor="end" style="font-family: Arial, sans-serif; font-size: 10px; fill: black; font-weight: bold;">scientific (4)</text></g><g id="science" transform="rotate(194.83880117287083) translate(250,0)"><text x="8" dy="0.35em" transform="rotate(180) translate(-16)" text-anchor="end" style="font-family: Arial, sans-serif; font-size: 10px; fill: black; font-weight: bold;">science (2)</text></g><g id="sensory" transform="rotate(199.9189421436255) translate(250,0)"><text x="8" dy="0.35em" transform="rotate(180) translate(-16)" text-anchor="end" style="font-family: Arial, sans-serif; font-size: 10px; fill: black; font-weight: bold;">sensory (2)</text></g><g id="represent" transform="rotate(204.99908311438008) translate(250,0)"><text x="8" dy="0.35em" transform="rotate(180) translate(-16)" text-anchor="end" style="font-family: Arial, sans-serif; font-size: 10px; fill: black; font-weight: bold;">represent (2)</text></g><g id="take" transform="rotate(210.07922408513474) translate(250,0)"><text x="8" dy="0.35em" transform="rotate(180) translate(-16)" text-anchor="end" style="font-family: Arial, sans-serif; font-size: 10px; fill: black; font-weight: bold;">take (2)</text></g><g id="advantage" transform="rotate(215.1593650558894) translate(250,0)"><text x="8" dy="0.35em" transform="rotate(180) translate(-16)" text-anchor="end" style="font-family: Arial, sans-serif; font-size: 10px; fill: black; font-weight: bold;">advantage (2)</text></g><g id="screen" transform="rotate(221.5859144388321) translate(250,0)"><text x="8" dy="0.35em" transform="rotate(180) translate(-16)" text-anchor="end" style="font-family: Arial, sans-serif; font-size: 10px; fill: black; font-weight: bold;">screen (4)</text></g><g id="space" transform="rotate(229.35887223396293) translate(250,0)"><text x="8" dy="0.35em" transform="rotate(180) translate(-16)" text-anchor="end" style="font-family: Arial, sans-serif; font-size: 10px; fill: black; font-weight: bold;">space (4)</text></g><g id="kind" transform="rotate(235.78542161690564) translate(250,0)"><text x="8" dy="0.35em" transform="rotate(180) translate(-16)" text-anchor="end" style="font-family: Arial, sans-serif; font-size: 10px; fill: black; font-weight: bold;">kind (2)</text></g><g id="coordinate" transform="rotate(240.8655625876603) translate(250,0)"><text x="8" dy="0.35em" transform="rotate(180) translate(-16)" text-anchor="end" style="font-family: Arial, sans-serif; font-size: 10px; fill: black; font-weight: bold;">coordinate (2)</text></g><g id="unstructured" transform="rotate(245.9457035584149) translate(250,0)"><text x="8" dy="0.35em" transform="rotate(180) translate(-16)" text-anchor="end" style="font-family: Arial, sans-serif; font-size: 10px; fill: black; font-weight: bold;">unstructured (2)</text></g><g id="criterion" transform="rotate(251.02584452916955) translate(250,0)"><text x="8" dy="0.35em" transform="rotate(180) translate(-16)" text-anchor="end" style="font-family: Arial, sans-serif; font-size: 10px; fill: black; font-weight: bold;">criterion (2)</text></g><g id="record" transform="rotate(256.1059854999242) translate(250,0)"><text x="8" dy="0.35em" transform="rotate(180) translate(-16)" text-anchor="end" style="font-family: Arial, sans-serif; font-size: 10px; fill: black; font-weight: bold;">record (2)</text></g><g id="spatial" transform="rotate(261.1861264706788) translate(250,0)"><text x="8" dy="0.35em" transform="rotate(180) translate(-16)" text-anchor="end" style="font-family: Arial, sans-serif; font-size: 10px; fill: black; font-weight: bold;">spatial (2)</text></g><g id="temporal" transform="rotate(266.26626744143346) translate(250,0)"><text x="8" dy="0.35em" transform="rotate(180) translate(-16)" text-anchor="end" style="font-family: Arial, sans-serif; font-size: 10px; fill: black; font-weight: bold;">temporal (2)</text></g></g></g></svg>